<?xml version="1.0" encoding="UTF-8"?>
<svg id="Layer_2" data-name="Layer 2" xmlns="http://www.w3.org/2000/svg" viewBox="0 0 312.42 40.75">
  <defs>
    <style>
      .cls-1 {
        fill: #fff;
      }
    </style>
  </defs>
  <g id="Layer_1-2" data-name="Layer 1">
    <g>
      <path class="cls-1" d="m312.42,5.82c0,3.22-2.61,5.82-5.82,5.82h0c-3.22,0-5.82-2.61-5.82-5.82h0c0-3.22,2.61-5.82,5.82-5.82h0c3.22,0,5.82,2.61,5.82,5.82h0Zm-.99,0c0-2.67-2.17-4.84-4.84-4.84s-4.84,2.17-4.84,4.84,2.17,4.84,4.84,4.84,4.84-2.17,4.84-4.84Z"/>
      <path class="cls-1" d="m305.14,6.42c-.04.78.46,2.06-.46,2.25-.19.04-.38-.08-.42-.27,0-.03,0-.05,0-.08l.11-5.56c0-.17.09-.25.26-.24l3.32.14c.17,0,.32.08.44.2.84.88.87,1.75.08,2.6-.09.1-.11.22-.05.34.4.81.61,1.67.62,2.59,0,.17-.08.26-.26.25l-.3-.02c-.16,0-.25-.09-.26-.25-.18-2.08-.49-2.82-2.82-2.24-.15.04-.23.13-.24.29Zm0-2.92v1.61c0,.13.09.23.22.23h1.77c.58,0,1.04-.42,1.05-.96h0v-.14c0-.53-.46-.97-1.04-.97h-1.77c-.13,0-.23.1-.23.23Z"/>
      <path class="cls-1" d="m120.09,22.13c2.3-3.15,5.46-4.81,9.03-2.47,3.56,2.33,4.33,7.85,3.19,11.6-1.19,3.96-5.16,7.33-9.43,5.1-1.06-.55-1.95-1.58-2.75-2.53-.05-.06-.14-.06-.2-.01-.03.03-.05.07-.05.11l.11,2.61c0,.19-.08.28-.27.28h-4.58c-.21,0-.31-.1-.31-.31v-1.59c0-.17.09-.26.26-.26h1.96c.17,0,.26-.09.26-.26V14.54c0-.17-.09-.26-.26-.26h-1.85c-.17,0-.26-.09-.26-.26v-1.59c0-.21.1-.31.31-.31h4.41c.2,0,.3.1.3.3v9.67s.03.07.06.07c.02,0,.05-.01.06-.03Zm-.19,4.31c.02,2.99-.16,5.45,2.47,7.33,1.49,1.06,3.35,1.37,4.94.39,3.05-1.89,3.09-7.12,2.08-10.12-2.1-6.18-9.52-3.04-9.48,2.4Z"/>
      <path class="cls-1" d="m136.61,14.18h-1.97c-.14,0-.25-.11-.25-.25v-1.56c0-.14.11-.25.25-.25h4.61c.14,0,.25.11.25.25l.04,22.03c0,.14.11.25.25.25h1.85c.14,0,.25.11.25.25,0,0,0,0,0,0l-.02,1.66c0,.14-.11.25-.25.25h-7.19c-.14,0-.25-.11-.25-.25h0v-1.65c0-.14.11-.25.25-.25h2.16c.14,0,.25-.12.25-.26V14.43c0-.14-.11-.25-.25-.25Z"/>
      <path class="cls-1" d="m59.86,33.45c-2.07,3.16-5.59,4.53-9.21,3.47-4.41-1.3-6.94-6.08-7.25-10.45-.26-3.7.54-6.93,2.4-9.7,3.42-5.1,10.37-5.8,13.9-.45.04.06.12.07.18.04.04-.02.06-.06.05-.11l-.05-3.03c0-.18.09-.27.26-.27h2.06c.18,0,.28.1.28.28l-.04,7.06c0,.1-.08.19-.19.19h0l-2.3.02c-.13,0-.21-.06-.24-.19-1.76-6.78-10.08-6.96-12.47-.37-.81,2.24-.99,4.78-.54,7.61.77,4.84,5.2,9.17,10.13,6.01,2.19-1.4,3.23-3.48,3.13-6.23,0-.13-.07-.19-.2-.19h-5.09c-.19,0-.27-.09-.26-.28l.14-1.65c.01-.16.1-.23.26-.23h7.69c.17,0,.26.09.26.26v11.16c0,.21-.1.31-.31.31h-2.1c-.18,0-.27-.09-.27-.27v-2.93c0-.07-.07-.13-.14-.12-.04,0-.08.02-.1.05Z"/>
      <path class="cls-1" d="m16.35,24.36c6.71,3.09,3.81,12.02-3.06,12.31-2.2.09-6.55.1-13.07.02-.15,0-.23-.08-.23-.23v-3.35c0-.16.08-.24.24-.23l1.27.03c.16,0,.24-.08.24-.24v-15.39c0-.14-.07-.21-.21-.21H.27c-.18,0-.27-.09-.27-.27v-3.32c0-.18.09-.27.27-.27,3.94.06,7.85.1,11.75.1,4.54,0,6.93,2.05,7.16,6.13.12,2.24-.82,3.84-2.82,4.73-.05.02-.08.09-.05.14.01.02.03.04.05.05Zm-9.67-7.18v5.43c0,.07.06.13.13.13h4.33c1.9,0,3.45-1.27,3.45-2.83v-.03c0-1.56-1.54-2.83-3.45-2.83h-4.33c-.07,0-.13.06-.13.13Zm-.01,9.45v6c0,.13.11.23.24.23h4.7c2-.01,3.62-1.4,3.62-3.11,0,0,0,0,0,0v-.28c0-1.71-1.63-3.09-3.63-3.09h-4.7c-.13,0-.23.11-.23.24h0Z"/>
      <path class="cls-1" d="m177.46,31.67h-7.89c-.12,0-.22.09-.26.2l-1.41,4.76c-.03.11-.14.19-.26.19h-5.01c-.15,0-.27-.12-.27-.27v-3.27c0-.15.12-.27.27-.27h1.29c.12,0,.22-.07.26-.19l6.28-19.41c.04-.11.14-.19.26-.19l5.36.03c.12,0,.22.07.26.18l6.39,19.38c.04.11.14.19.26.19h1.32c.15,0,.27.12.27.27h0s.03,3.27.03,3.27c0,.15-.12.27-.27.27h-4.94c-.12,0-.22-.08-.26-.19l-1.42-4.77c-.03-.12-.14-.19-.26-.19Zm-7.07-3.77c-.02.07.02.15.09.17.01,0,.02,0,.03,0h5.76c.08.01.14-.05.14-.12,0-.01,0-.03,0-.04l-2.86-9.75c-.02-.07-.1-.11-.17-.09-.04.01-.08.05-.09.09l-2.89,9.75Z"/>
      <path class="cls-1" d="m90.45,21.84c1.98-3.57,8.62-5.42,9.43,0,.01.1.1.17.2.15.06,0,.11-.05.14-.1,1.54-3.2,6.84-5.47,8.86-1.5.4.79.62,2.1.65,3.92.05,3.32.07,6.59.05,9.81,0,.29.14.43.43.43h1.79c.16,0,.25.08.24.25v1.68c-.01.16-.09.24-.25.24h-4.54c-.14,0-.21-.07-.21-.21-.02-4.17-.03-8.32,0-12.46.03-5.63-5.38-3.62-6.85-.29-1.03,2.35-.47,7.82-.47,10.58,0,.12.1.22.22.22h2.16c.14,0,.21.07.21.21v1.7c0,.17-.09.26-.26.26h-4.79c-.11,0-.21-.09-.21-.21.01-4.09,0-8.18,0-12.25-.02-5.78-5.09-3.76-6.7-.52-1.19,2.39-.61,7.88-.58,10.64,0,.18.09.28.28.28h2.03c.17,0,.26.09.26.26v1.59c0,.21-.1.31-.31.31h-7.15c-.17,0-.26-.09-.26-.26v-1.68c0-.18.09-.27.27-.26.47.03,2.71.38,2.38-.61-.03-.1-.05-.21-.05-.32l.08-12.59c0-.19-.09-.29-.29-.28l-2.13.06c-.18,0-.27-.08-.27-.26v-1.61c.01-.21.12-.31.32-.31h4.66c.16.01.24.09.26.26l.15,2.82c0,.08.08.14.16.13.05,0,.09-.03.12-.07Z"/>
      <path class="cls-1" d="m27.39,28.89c.08,4.51,5.42,6.76,7.77,2.31.07-.13.18-.2.33-.21l4.01-.15c.13,0,.19.06.16.19-.64,2.8-2.22,4.64-4.74,5.53-7.62,2.7-13.5-3.75-11.89-11.15,1.05-4.84,5.08-7.7,9.89-6.96,4.73.73,7.21,5.52,7.15,10.07,0,.11-.06.16-.17.16h-12.32c-.11,0-.19.08-.19.19,0,0,0,0,0,0Zm.35-3.35l7.42.02s.05-.02.05-.05h0c0-1.87-1.65-3.38-3.7-3.39h-.09c-2.05,0-3.71,1.5-3.72,3.36h0s.02.06.05.06h0Z"/>
      <path class="cls-1" d="m249.29,28.85c.12,4.45,5.67,6.91,7.75,2.34.07-.15.18-.22.34-.23l3.89-.14c.3-.01.41.13.32.41-2.14,7.07-11.43,8.03-15.33,2.02-2.7-4.16-1.91-10.4,2.14-13.36,2.71-1.98,6.93-2.07,9.73-.04,2.63,1.91,3.91,5.4,3.87,8.63,0,.14-.08.21-.22.21h-12.33c-.09,0-.16.07-.16.16,0,0,0,0,0,0Zm.19-3.33l7.51.05s.01,0,.01-.01h0v-.03c.01-1.86-1.64-3.39-3.69-3.4h-.11c-2.05-.01-3.72,1.48-3.74,3.35,0,0,0,0,0,0v.03s0,.01.01.01Z"/>
      <path class="cls-1" d="m237.41,21.31c1.27-2.43,3.3-3.31,6.09-2.64.18.04.27.16.27.35v3.6c0,.15-.08.22-.23.21-2.31-.21-4.32-.44-5.64,1.78-.99,1.67-.5,6.31-.55,8.36,0,.17.08.25.24.25h1.6c.17,0,.26.09.26.26v3.03c0,.14-.07.21-.21.21h-7.82c-.21,0-.31-.1-.31-.31v-2.93c0-.17.09-.26.26-.26h1.27c.15,0,.22-.07.22-.22l.03-10.42c0-.18-.09-.27-.27-.27h-1.24c-.17,0-.26-.09-.26-.26v-2.93c0-.21.1-.31.31-.31h5.56c.13,0,.2.07.21.21v2.24c0,.07.06.12.13.11.04,0,.08-.02.1-.06Z"/>
      <path class="cls-1" d="m77.62,33.99c0-.05-.04-.1-.09-.1-.03,0-.06.01-.08.04-1.92,2.76-5.49,4.15-8.61,2.7-3.42-1.59-4.47-6.73-.89-8.82,2.49-1.46,6.24-1.85,9.21-2.06.13,0,.21-.08.22-.21.21-2.64-.17-4.27-2.94-4.75-2.79-.49-4.56.47-5.32,2.87-.05.15-.15.22-.3.22l-2.2-.04c-.13,0-.18-.07-.15-.19.9-4.31,5.16-5.8,9.2-4.73,3.79,1.01,4.27,3.54,4.28,7.29.01,2.75.02,5.49.01,8.24,0,.15.07.22.22.22h2.06c.16,0,.25.08.27.25l.15,1.63c.02.19-.07.28-.26.28h-4.56c-.18,0-.26-.09-.26-.27l.05-2.57Zm-.37-6.39c-1.56.24-9.53.7-8.52,4.5.79,2.94,3.44,3.69,5.98,2.33,2.38-1.27,3.3-3.49,2.77-6.66-.02-.13-.1-.18-.23-.16Z"/>
      <path class="cls-1" d="m146.77,28.66c.12,2.17,1.07,4.94,3.25,5.9,2.51,1.1,5.05.19,6.13-2.42.06-.15.17-.22.33-.23l2.4-.1c.4-.02.52.15.35.52-3.22,6.94-12.3,6.26-14.76-.8-1.49-4.29-.14-10.58,4.58-12.42,6.35-2.47,10.72,3.39,10.58,9.13,0,.08-.07.15-.15.15h-12.43c-.18,0-.27.09-.26.28Zm.32-2.32l9.48-.03c.06,0,.11-.05.11-.11v-.05c-.01-2.96-2.18-5.36-4.85-5.35h-.03c-2.67,0-4.83,2.42-4.82,5.38h0v.06c0,.06.05.11.11.11h0Z"/>
      <path class="cls-1" d="m222.99,34.97c-2.03,2.02-4.46,2.65-7.27,1.9-5.31-1.42-5.85-8.34-.42-10.25,2.39-.84,4.88-1.27,7.46-1.28.13,0,.2-.06.22-.19.74-4.3-5.47-4.86-6.32-.77-.03.13-.11.19-.24.19l-3.54-.13c-.26-.01-.47-.23-.46-.5,0-.03,0-.07.01-.1,1.19-4.8,5.7-5.96,10.12-4.96,3.32.75,4.93,2.78,4.84,6.1-.07,2.7-.1,5.4-.09,8.1,0,.16.08.23.23.23h1.06c.18.01.26.1.26.28v2.96c0,.18-.09.27-.27.27h-5.2c-.15,0-.22-.08-.21-.23l.09-1.5c.02-.28-.07-.32-.27-.12Zm-.19-6.57c-1.62.07-3.31.33-4.86.81-3.45,1.08-1.64,5.69,2.23,4.5,2.22-.69,3.18-2.39,2.88-5.1-.02-.15-.1-.22-.25-.21Z"/>
      <path class="cls-1" d="m192.26,32.23l2.77-13.06c.04-.21.23-.36.44-.36h4.06c.14,0,.25.1.28.23l2.79,13.04c.02.07.08.11.15.09.04-.01.08-.04.09-.09l2.13-9.41c.04-.17-.07-.34-.23-.38-.03,0-.05,0-.08,0l-1.05.02c-.19,0-.28-.09-.28-.27l-.02-2.97c0-.14.11-.25.24-.26,0,0,0,0,0,0h6.63c.17,0,.26.09.26.26v2.98c0,.17-.09.26-.26.26h-1.03c-.18,0-.29.09-.34.26l-3.66,13.92c-.03.13-.15.22-.28.22h-4.31c-.14,0-.26-.1-.29-.23l-2.79-11.63c-.08-.34-.16-.34-.24,0l-2.66,11.68c-.03.12-.1.18-.22.18h-4.4c-.13,0-.21-.06-.24-.19l-3.8-14c-.04-.15-.13-.22-.28-.22h-1.07c-.17,0-.26-.09-.26-.26v-2.93c0-.21.1-.31.31-.31h6.63c.18,0,.27.09.27.28l-.05,2.95c0,.21-.11.3-.31.29l-1.08-.07c-.17-.01-.31.12-.32.28,0,.03,0,.06,0,.09l2.26,9.6c.09.36.17.36.24,0Z"/>
      <path class="cls-1" d="m274.2,36.99c-3.28,0-5.94-3.03-5.94-6.76h0c0-3.73,2.66-6.76,5.94-6.76h0c3.28,0,5.94,3.03,5.94,6.76h0c0,3.73-2.66,6.76-5.94,6.76h0Zm-.03-1.61c2.13,0,3.85-2.3,3.86-5.15h0c0-2.85-1.71-5.16-3.84-5.16-2.13,0-3.85,2.3-3.86,5.15h0c0,2.85,1.71,5.16,3.84,5.16Z"/>
      <path class="cls-1" d="m285.36,26.2c.86-2.06,2.46-2.93,4.78-2.63.17.02.25.12.25.29v1.41c0,.16-.08.23-.24.21-6.19-.83-5.01,5.71-5,9.46,0,.13.07.2.2.2l1.68-.07c.18,0,.27.08.27.26v1.02c.01.17-.07.26-.25.26h-5.4c-.14,0-.21-.07-.21-.21v-1.13c.01-.15.09-.22.24-.21l1.28.13c.23.02.34-.08.34-.3v-9.4c0-.19-.09-.28-.28-.27l-1.4.09c-.18.01-.28-.08-.28-.26v-1.05c0-.17.09-.26.26-.26h3.29c.19,0,.28.1.28.29l-.09,2.1c0,.08.06.15.15.16.06,0,.12-.03.14-.09Z"/>
      <path class="cls-1" d="m300.46,25.61l-.12-1.56c-.01-.19.08-.29.27-.29h3.2c.19,0,.28.1.27.29l-.07,1.02c-.02.19-.12.28-.32.27l-1.22-.1c-.16-.01-.25.06-.25.23-.02,3.63-.02,7.25,0,10.85.02,5.47-9.04,6.01-10.68.98-.05-.17,0-.26.19-.26h1.53c.14,0,.25.06.33.18,1.32,2.03,3.17,2.48,5.56,1.37,1.53-.72,1.19-3.34,1.31-4.72,0-.06-.04-.11-.1-.12-.03,0-.07,0-.09.03-1.08,1.13-2.24,1.76-3.49,1.88-6.48.61-7.56-10.99-1.15-12.04,1.79-.29,3.32.4,4.58,2.09.2.26.28.23.26-.09Zm-.84,6.99c1.4-2.07,1.13-5.38-1.02-6.86-4.85-3.34-7.1,5.62-3.43,7.95,1.49.95,3.5.31,4.45-1.09Z"/>
      <rect class="cls-1" x="264.15" y="34.46" width="2.18" height="2.16" rx=".16" ry=".16" transform="translate(-.41 3.24) rotate(-.7)"/>
    </g>
  </g>
</svg>