<?xml version="1.0" encoding="UTF-8"?>
<svg id="Layer_2" data-name="Layer 2" xmlns="http://www.w3.org/2000/svg" viewBox="0 0 204.01 59.58">
  <defs>
    <style>
      .cls-1 {
        fill: #fff;
      }
    </style>
  </defs>
  <g id="Layer_1-2" data-name="Layer 1">
    <g>
      <path class="cls-1" d="m6.14,9.58c2.78-1.69,3.97-5.02,5.02-8.5.11-.36.35-.56.72-.61,7.94-.98,16.81-.12,24.88-.18.88,0,1.64.64,1.77,1.51.79,5.25,3.77,8.28,8.94,9.09,1.02.16,1.78,1.04,1.78,2.08.02,8.05.02,16.08,0,24.08,0,.77-.47,2.05-1.4,3.83-3.04,5.8-18.68,21.65-25.89,18.21C13.1,54.86,0,45.01,0,34.03c.01-7.15.02-14.29.01-21.43,0-.37.14-.67.42-.9,1.78-1.5,3.91-1.03,5.71-2.12Zm26.83,38.18c3.44-2.95,10-9.53,10.04-14.32.04-5.28.03-10.61-.03-15.98,0-.38-.18-.64-.53-.79-4.59-1.93-7.57-5.3-8.94-10.09-.12-.41-.39-.59-.82-.52-5.29.89-10.54.78-15.74-.34-.34-.07-.56.06-.65.39-1.47,5.07-4.69,8.49-9.66,10.24-.34.12-.52.36-.53.72-.23,5.49-.25,10.98-.06,16.48.27,8.07,12.1,16.22,18.21,19.79.3.18.62.24.97.17,4.02-.78,5.37-3.71,7.74-5.75Z"/>
      <path class="cls-1" d="m59.98,14.13c2.08.87,4.84.97,6.32,2.53,5.58,5.85-5.72,12.2-11.14,4.67-.35-.49-.23-.8.36-.93l2.35-.5c.37-.08.66.04.87.35,1.31,1.91,2.93,2.22,4.85.93.53-.36.67-1.08.3-1.61-.16-.23-.39-.4-.66-.47-2.21-.55-5.13-1-6.47-2.86-3.95-5.51,5.3-9.86,10.07-4.82.25.26.31.56.18.9-.33.83-1.09,1.18-2.3,1.05-.32-.03-.6-.16-.85-.37-1.4-1.2-3.76-1.9-4.3.29-.09.4.05.68.42.84Z"/>
      <path class="cls-1" d="m117.55,24.91c-3.63,0-6.57-3.57-6.57-7.98h0c0-4.41,2.94-7.98,6.57-7.98s6.57,3.57,6.57,7.98-2.94,7.98-6.57,7.98h0Zm.01-2.98c1.55,0,2.81-2.23,2.82-4.99h0c0-2.76-1.25-4.99-2.8-4.99h0c-1.55,0-2.81,2.23-2.82,4.99h0c0,2.76,1.25,4.99,2.8,4.99h0Z"/>
      <path class="cls-1" d="m73.76,12.8v2c0,.28.22.5.5.5h4.75c.28,0,.5.22.5.5v2c0,.28-.22.5-.5.5h-4.75c-.28,0-.5.22-.5.5v2.25c0,.28.22.5.5.5h6.25c.28,0,.5.22.5.5v2c0,.28-.22.5-.5.5h-10c-.28,0-.5-.22-.5-.5v-14.25c0-.28.22-.5.5-.5h10.05c.28,0,.5.22.5.5,0,.02,0,.04,0,.05l-.2,2c-.03.25-.24.45-.49.45h-6.11c-.28,0-.5.22-.5.5Z"/>
      <path class="cls-1" d="m85.39,12.27l-2.99.12c-.19.01-.36-.14-.37-.33,0,0,0,0,0-.01l-.03-2.39c0-.19.15-.35.34-.36,0,0,0,0,.01,0h10.56c.19,0,.35.16.35.35v2.38c0,.19-.16.35-.35.35,0,0,0,0-.01,0l-3.03-.12c-.19,0-.35.15-.36.34,0,0,0,0,0,.01v11.59c0,.19-.16.35-.35.35h-3.05c-.19,0-.35-.16-.35-.35v-11.58c0-.19-.16-.35-.35-.35,0,0-.01,0-.02,0Z"/>
      <path class="cls-1" d="m105.65,14.37l2.47-4.88c.06-.11.17-.19.3-.19h2.5c.19,0,.34.15.34.34,0,.06-.01.11-.04.16l-4.42,8.2c-.03.05-.04.11-.04.17v6.04c0,.19-.15.34-.34.34h-3.07c-.19,0-.34-.15-.34-.34v-6.09c0-.06-.01-.12-.04-.17l-4.44-8.15c-.09-.17-.03-.37.14-.46.05-.03.1-.04.16-.04h3.47c.13,0,.24.08.3.19l2.44,4.87c.08.17.28.24.45.16.07-.03.12-.09.16-.15Z"/>
      <path class="cls-1" d="m130.84,21.31c1.51.81,2.88.69,4.1-.34.21-.19.32-.42.32-.7v-10.47c0-.33.17-.5.5-.5h2.18c.45,0,.67.23.66.68l-.32,11.54c0,.38-.14.7-.41.97-3.58,3.68-11.49,3.5-11.58-3.18-.04-3.15-.05-6.3-.02-9.47,0-.36.19-.54.55-.54h2.77c.39,0,.58.19.59.58l.11,10.52c0,.41.18.72.55.91Z"/>
      <path class="cls-1" d="m144.78,19.51l.16,4.44c.02.4-.17.6-.58.6h-2.6c-.33,0-.5-.17-.5-.5v-14.24c0-.33.17-.5.5-.5,2.89-.02,7.84-.65,10.04,1,2.4,1.79,2.27,5.43-.35,7.2-.34.23-.43.53-.27.91l2.27,5.43c.2.47.05.7-.46.7h-2.75c-.4,0-.67-.18-.82-.55-.71-1.78-1.36-6.33-4.05-5.35-.41.15-.6.43-.59.86Zm.07-6.79v2.4c0,.37.3.67.67.68h2.31c1.04.02,1.89-.77,1.9-1.75h0v-.22c0-.98-.84-1.77-1.88-1.78h-2.31c-.38-.02-.68.28-.69.66,0,0,0,0,0,.01Z"/>
      <path class="cls-1" d="m23.54,31.42l12.09-11.17c.35-.33.72-.35,1.11-.06l2.61,1.95c.36.27.48.61.35,1.04-1.23,4.13-11.28,12.22-14.71,15.79-.24.25-.52.32-.85.19-1.56-.59-2.55-.53-3.87-1.66-3.3-2.83-6.34-5.95-9.11-9.35-.78-.95-.67-2.34.23-3.17.85-.79,1.82-1.26,2.92-1.41.36-.05.67.05.93.31l7.57,7.53c.24.23.48.24.73,0Z"/>
      <path class="cls-1" d="m104.3,46.92c-3.63.03-6.6-3.52-6.64-7.93-.04-4.41,2.87-8.02,6.5-8.05,3.63-.03,6.6,3.52,6.64,7.93.04,4.41-2.87,8.02-6.5,8.05Zm-.05-3.01c1.54,0,2.79-2.22,2.8-4.98s-1.24-4.98-2.78-4.98h0c-1.54,0-2.79,2.22-2.8,4.98,0,2.75,1.24,4.98,2.78,4.98h0Z"/>
      <path class="cls-1" d="m116.34,34.45c-.47.27-.64.88-.36,1.35.12.2.3.36.52.44,3.26,1.14,8.21,1.44,7.44,6.14-.93,5.69-10.3,5.92-12.16.87-.15-.41-.02-.68.4-.79l2.01-.57c.37-.1.66.01.86.34,1.3,2.16,6.05,2.26,5.16-.41-.11-.33-.34-.55-.67-.66-2.8-.87-6.85-1.06-7.06-4.97-.33-6.15,8.03-6.57,10.98-2.34.34.49.23.83-.33,1.03l-1.74.63c-.35.13-.65.04-.89-.25-1.18-1.45-2.57-1.72-4.16-.81Z"/>
      <path class="cls-1" d="m56.76,31.56c0-.16.13-.29.29-.29h5.14c3.89,0,7.05,3.26,7.05,7.28h0v.76c0,4.02-3.16,7.28-7.05,7.28h-5.14c-.16,0-.29-.13-.29-.29h0v-14.74Zm3.5,3.23l-.02,8.2c0,.41.34.75.75.75h.28c2.34,0,4.23-1.99,4.24-4.46,0,0,0,0,0,0v-.76c0-2.46-1.89-4.46-4.22-4.47h-.28c-.41,0-.75.34-.75.75Z"/>
      <path class="cls-1" d="m75.26,34.7v2.2c0,.22.18.4.4.4h4.96c.22,0,.4.18.4.4,0,0,0,0,0,.01l-.03,2.2c0,.22-.18.39-.4.39h-4.93c-.22,0-.4.18-.4.4h0v2.45c0,.22.18.4.4.4h6.45c.22,0,.4.18.4.4h0v2.2c0,.22-.18.4-.4.4h-10.2c-.22,0-.4-.18-.4-.4h0v-14.45c0-.22.18-.4.4-.4h10.2c.22,0,.4.18.4.4h0v2.2c0,.22-.18.4-.4.4h-6.45c-.22,0-.4.18-.4.4h0Z"/>
      <path class="cls-1" d="m88.26,42.51v3.54c0,.33-.17.5-.5.5h-2.75c-.33,0-.5-.17-.5-.5v-13.99c0-.33.17-.52.5-.56,5.12-.61,12.93-1.11,10.9,6.15-.65,2.31-2.66,3.42-6.04,3.31-1.07-.03-1.61.48-1.61,1.55Zm.01-8.23l-.02,3.56c0,.12.1.22.22.22h2.21c1.14.02,2.07-.81,2.08-1.83h0v-.3c0-1.02-.92-1.85-2.06-1.86h-2.21c-.12-.01-.22.09-.22.21h0Z"/>
      <rect class="cls-1" x="120.6" y="37.19" width="15.28" height="3.54" rx=".39" ry=".39" transform="translate(89.05 167.13) rotate(-89.9)"/>
      <path class="cls-1" d="m134.91,34.3h-3.05c-.19,0-.35-.16-.35-.35h0v-2.3c0-.19.16-.35.35-.35h10.55c.19,0,.35.16.35.35h0v2.3c0,.19-.16.35-.35.35h-3.05c-.19,0-.35.16-.35.35h0v11.72c0,.19-.16.35-.35.35-.01,0-.02,0-.03,0l-3.05-.26c-.18-.02-.32-.17-.32-.35v-11.46c0-.19-.16-.35-.35-.35h0Z"/>
      <path class="cls-1" d="m153.86,43.55h5.4c.19,0,.34.15.35.34l.04,2.3c0,.19-.15.35-.34.36,0,0,0,0-.01,0h-8.94c-.19,0-.35-.16-.35-.35h0v-14.55c0-.19.16-.35.35-.35h2.8c.19,0,.35.16.35.35h0v11.55c0,.19.16.35.35.35h0Z"/>
      <rect class="cls-1" x="161.51" y="31.3" width="3.5" height="15.3" rx=".26" ry=".26"/>
      <path class="cls-1" d="m180.62,35.61l-3.09,10.29c-.13.43-.42.65-.87.65h-1.23c-.45,0-.74-.22-.87-.65l-2.84-9.61c-.06-.19-.27-.29-.46-.22-.14.05-.24.18-.24.32v9.66c0,.33-.18.5-.51.5h-1.75c-.5,0-.75-.25-.75-.75v-14c0-.33.17-.5.5-.5h4.69c.3,0,.49.14.58.43l2.14,7.33c.07.23.31.35.54.28.13-.04.24-.15.28-.28l2.17-7.32c.09-.29.28-.44.59-.44h4.51c.5,0,.75.25.75.75v13.75c0,.5-.25.75-.75.75h-2.37c-.42,0-.63-.21-.63-.62v-10.26c-.02-.11-.11-.2-.21-.2-.08,0-.15.06-.18.14Z"/>
      <rect class="cls-1" x="187.76" y="31.3" width="3.5" height="15.26" rx=".27" ry=".27"/>
      <path class="cls-1" d="m196.11,34.3h-2.95c-.22,0-.4-.18-.4-.4v-2.2c0-.22.18-.4.4-.4h10.45c.22,0,.4.18.4.4v2.41c0,.22-.18.4-.4.4-.01,0-.03,0-.04,0l-2.87-.28c-.22-.02-.42.14-.44.36,0,.01,0,.03,0,.04v11.52c0,.22-.18.4-.4.4h-2.95c-.22,0-.4-.18-.4-.4v-11.45c0-.22-.18-.4-.4-.4Z"/>
    </g>
  </g>
</svg>