<?xml version="1.0" encoding="UTF-8"?>
<svg id="Layer_2" data-name="Layer 2" xmlns="http://www.w3.org/2000/svg" viewBox="0 0 138.84 63.81">
  <defs>
    <style>
      .cls-1 {
        fill: #fff;
      }
    </style>
  </defs>
  <g id="Layer_1-2" data-name="Layer 1">
    <g id="Layer_2-2" data-name="Layer 2">
      <g id="graphics">
        <path class="cls-1" d="m55.35,44.78v-1.26c0-.78-.63-1.41-1.41-1.41h-1.47s-.09,0-.14,0h-11.02c-.78,0-1.41.63-1.41,1.41v18.85c0,.78.63,1.41,1.41,1.41h4.28c.78,0,1.42-.63,1.42-1.41,0,0,0,0,0,0v-5.89h6.16c.78,0,1.41-.63,1.41-1.41v-2.86c0-.78-.63-1.41-1.41-1.41h-6.16v-2.77h6.9c.78,0,1.41-.63,1.41-1.41v-1.25c0-.1.02-.2.02-.3s0-.17,0-.27Z"/>
        <path class="cls-1" d="m76.55,43.49c0-.78-.63-1.41-1.41-1.41h-4.28c-.78,0-1.41.63-1.41,1.41v3.1c0,.06,0,.11,0,.17v8.38c0,1.72-.74,2.56-2.24,2.56s-2.24-.84-2.24-2.56v-11.67c0-.78-.63-1.41-1.41-1.41h-4.29c-.78,0-1.41.63-1.41,1.41v12.3c0,4.8,3.76,8.03,9.36,8.03s9.36-3.23,9.36-8.03v-12.29Z"/>
        <path class="cls-1" d="m97.43,42.11h-3.96c-.78,0-1.41.63-1.41,1.41h0v7.95l-3.28-4.42c-.27-.36-.53-.73-.8-1.09-.52-.72-2.01-2.77-2.21-3.06-.35-.5-.92-.8-1.53-.81h-2.99c-.78,0-1.41.63-1.41,1.41v15.6c0,.06,0,.12,0,.19v3.07c0,.78.63,1.41,1.41,1.41h3.98c.78,0,1.41-.63,1.41-1.41h0v-8.1l3.15,4.25c.34.45.68.96,1.02,1.41.52.73,2.04,2.77,2.24,3.06.35.49.92.79,1.53.8h2.95c.06,0,.11,0,.16-.02.68-.12,1.17-.7,1.17-1.39v-18.86c0-.78-.65-1.41-1.43-1.4,0,0,0,0,0,0Z"/>
        <path class="cls-1" d="m31.68,13.5h-5.76c-.19,0-.37.08-.49.23l-4.54,5.53c-.23.27-.64.3-.9.06-.14-.12-.22-.29-.22-.47v-4.72c0-.35-.29-.64-.64-.64h-4.99c-.35,0-.64.29-.64.64v20.46c0,.35.29.64.64.64h5c.35,0,.64-.29.64-.64v-5.79c0-.15.05-.29.15-.41h0c.23-.27.63-.3.9-.07.04.03.07.07.1.11l4.64,6.54c.12.17.31.26.52.27h6c.35,0,.64-.3.63-.65,0-.13-.04-.25-.11-.35l-7.48-10.53c-.16-.23-.15-.55.03-.77l7.01-8.4c.22-.28.18-.68-.1-.9-.11-.09-.24-.13-.37-.14Z"/>
        <path class="cls-1" d="m35.1,35.22h13.85c.35,0,.64-.29.64-.64v-4.28c0-.35-.29-.64-.64-.64h-7.59c-.35,0-.64-.29-.64-.64v-1.48c0-.35.29-.64.64-.64h7.09c.35,0,.64-.29.64-.64v-4.03c0-.35-.29-.64-.64-.64h-7.09c-.35,0-.64-.29-.64-.64v-1.28c0-.35.29-.64.64-.64h7.59c.35,0,.64-.29.64-.64v-4.25c0-.35-.29-.64-.64-.64h-13.85c-.35,0-.64.29-.64.64v20.46c0,.35.29.63.64.63Z"/>
        <path class="cls-1" d="m52.83,35.22h13.86c.35,0,.64-.29.64-.64v-4.28c0-.35-.29-.64-.64-.64h-7.6c-.35,0-.64-.29-.64-.64v-1.48c0-.35.29-.64.64-.64h7.09c.35,0,.64-.29.64-.64v-4.03c0-.35-.29-.64-.64-.64h-7.09c-.35,0-.64-.29-.64-.64v-1.28c0-.35.29-.64.64-.64h7.6c.35,0,.64-.29.64-.64v-4.25c0-.35-.29-.64-.64-.64h-13.86c-.35,0-.64.29-.64.64v20.46c0,.35.29.63.64.63Z"/>
        <path class="cls-1" d="m78.97,13.5h-8.41c-.35,0-.64.29-.64.64v20.46c0,.35.29.64.64.64h5c.35,0,.64-.29.64-.64v-4.91c0-.35.29-.64.64-.64h1.92c4.75,0,8.07-3.2,8.07-7.78s-3.23-7.77-7.86-7.77Zm1.53,7.79c0,1.6-.86,2.4-2.63,2.4h-1.04c-.35,0-.64-.29-.64-.64v-3.52c0-.35.29-.64.64-.64h1.06c1.76.02,2.61.8,2.61,2.4Z"/>
        <rect class="cls-1" x="99.32" y="13.5" width="6.26" height="21.72" rx=".63" ry=".63"/>
        <path class="cls-1" d="m107.66,14.13v4.28c0,.35.29.64.64.64h4.38c.35,0,.64.29.64.64v14.91c0,.35.29.64.64.64h5c.35,0,.64-.29.64-.64v-14.92c0-.35.29-.64.64-.64h4.4c.35,0,.64-.29.64-.64v-4.27c0-.35-.29-.64-.64-.64h-16.32c-.35-.01-.65.27-.66.62,0,0,0,.01,0,.02Z"/>
        <path class="cls-1" d="m9.52,63.57h20.11c1.78.06,3.27-1.34,3.32-3.12s-1.34-3.27-3.12-3.32c-.07,0-.14,0-.2,0H10.09v-.02c-2.01,0-3.63-1.63-3.63-3.63l-.02-8.07V14.85l.03-4.78c0-2.01,1.63-3.63,3.63-3.63,0,0,0,0,0,0h118.65c2.01,0,3.64,1.63,3.64,3.64v43.4c0,2.01-1.63,3.63-3.63,3.63v.02h-19.78c-1.78.06-3.17,1.54-3.12,3.32.05,1.7,1.42,3.07,3.12,3.12h20.34c5.26,0,9.52-4.27,9.52-9.52V9.52c0-5.26-4.27-9.52-9.52-9.52H9.52C4.27,0,0,4.27,0,9.52v44.53c0,5.26,4.27,9.52,9.52,9.52Z"/>
      </g>
    </g>
  </g>
</svg>