<?xml version="1.0" encoding="UTF-8"?>
<svg id="Layer_2" data-name="Layer 2" xmlns="http://www.w3.org/2000/svg" viewBox="0 0 861.4 861.4">
  <defs>
    <style>
      .cls-1 {
        fill: #00c499;
      }

      .cls-2 {
        fill: #fff;
      }

      .cls-3 {
        fill: #f2a600;
      }

      .cls-4 {
        fill: #6624cf;
      }

      .cls-5 {
        fill: #e12482;
      }

      .cls-6 {
        fill: #36bff0;
      }
    </style>
  </defs>
  <g id="Layer_1-2" data-name="Layer 1">
    <g>
      <circle class="cls-2" cx="430.7" cy="430.7" r="430.7"/>
      <g>
        <path class="cls-5" d="m260.14,640.2c5.9,31-14.5,60.9-45.6,66.8-31,5.9-60.9-14.5-66.8-45.6-5.9-31,14.5-60.9,45.6-66.8,31-5.8,60.9,14.6,66.8,45.6"/>
        <path class="cls-2" d="m230.84,669.3l-11.4,2.2-4.6-24.2-7.5,20.1-1.2.2-14.3-15.9,4.6,24.2-11.5,2.1-8.5-45,11.5-2.2,15.1,17.1,7.8-21.4,11.5-2.2,8.5,45Z"/>
        <path class="cls-3" d="m374.44,675.8c-5.9,31-35.8,51.4-66.8,45.5s-51.4-35.8-45.5-66.8,35.8-51.4,66.8-45.5,51.4,35.8,45.5,66.8"/>
        <path class="cls-2" d="m330.74,679.9l-2.1,10.8-28.9-5.5,8.5-45,28.7,5.5-2.1,10.7-17.1-3.3-1.2,6.3,15.5,2.9-2,10.6-15.5-2.9-1.2,6.6,17.4,3.3Z"/>
        <path class="cls-4" d="m487.64,649c-4.1,31.3-32.8,53.4-64.1,49.3s-53.4-32.8-49.3-64.1,32.8-53.4,64.1-49.3,53.4,32.8,49.3,64.1"/>
        <path class="cls-2" d="m408.84,638.9c1.8-13.4,13-22.4,26.8-20.6,8.3,1.1,15.2,6.3,18.3,13.4l-10.8,4.5c-1.3-3.5-4.7-5.9-8.9-6.5-7.3-1-12.8,3.5-13.8,10.7-1,7.3,3.2,13,10.5,13.9,4.2.6,8.1-.9,10.3-4l9.3,7.2c-4.8,6-12.7,9.3-21.1,8.2-13.8-1.8-22.4-13.4-20.6-26.8"/>
        <path class="cls-1" d="m602.94,630.7c2.1,31.5-21.8,58.7-53.3,60.8s-58.7-21.8-60.8-53.3,21.8-58.7,53.3-60.8c31.5-2.1,58.8,21.8,60.8,53.3"/>
        <path class="cls-2" d="m523.64,636.2c-.9-13.5,8.4-24.5,22.3-25.4,8.4-.6,16.1,3.2,20.5,9.5l-9.7,6.5c-2-3.1-5.8-4.9-10-4.6-7.4.5-11.9,5.9-11.4,13.2s5.7,12.1,13,11.6c4.2-.3,7.8-2.5,9.3-5.9l10.5,5.2c-3.5,6.9-10.6,11.6-19.1,12.1-13.8,1-24.5-8.7-25.4-22.2"/>
        <path class="cls-6" d="m713.94,654c5,31.2-16.1,60.5-47.3,65.6-31.2,5-60.5-16.1-65.6-47.3s16.1-60.5,47.3-65.6,60.6,16.1,65.6,47.3"/>
        <path class="cls-2" d="m669.44,678.2l-15.1,2.4-.9,6.8-12.5,2,7.6-47.6,14.1-2.3,22.2,42.8-12.5,2-2.9-6.1Zm-4.6-9.4l-7.1-14.6-2,16.1,9.1-1.5Z"/>
      </g>
    </g>
  </g>
</svg>