<?xml version="1.0" encoding="UTF-8"?>
<svg id="Layer_2" data-name="Layer 2" xmlns="http://www.w3.org/2000/svg" viewBox="0 0 530.77 530.77">
  <defs>
    <style>
      .cls-1 {
        fill: #fff;
      }
    </style>
  </defs>
  <g id="Layer_1-2" data-name="Layer 1">
    <g>
      <path class="cls-1" d="m300.35,237.4c-6.1-6.11-10.99-15.88-10.99-28.49s4.48-23.21,11.4-30.12c6.92-6.52,17.09-11,29.71-11s22.8,4.48,29.72,11c6.92,6.91,11.39,17.91,11.39,30.12s-4.88,22.38-10.99,28.49c-7.32,7.73-19.53,12.21-30.12,12.21s-22.79-4.48-30.12-12.21Z"/>
      <path class="cls-1" d="m362.63,296.42c8.14,8.14,12.62,21.17,12.62,32.97,0,10.58-4.07,22.8-12.21,31.75-5.7,6.51-15.88,13.84-32.57,13.84s-26.86-7.33-32.56-13.84c-8.14-8.95-12.21-21.17-12.21-31.75,0-11.8,4.47-24.83,12.62-32.97,8.14-8.14,20.35-12.62,32.15-12.62s24.02,4.48,32.16,12.62Z"/>
      <path class="cls-1" d="m265.38,0C118.81,0,0,118.82,0,265.39s118.81,265.38,265.38,265.38,265.39-118.81,265.39-265.38S411.95,0,265.38,0Zm-61.83,407.14h-41.52v-233.24h-47.22l22.79-38.26h65.95v271.5Zm190.83-20.76c-12.62,13.43-32.97,25.23-63.91,25.23s-51.28-11.8-63.9-25.23c-10.99-11.4-21.58-30.12-21.58-57.8,0-12.21,2.04-27.27,12.21-40.71,6.11-8.54,15.88-16.69,28.5-21.98-11.4-4.88-19.13-13.02-24.02-20.35-6.92-10.99-9.77-24.83-9.77-37.04,0-21.57,7.74-41.93,22.8-56.58,8.55-8.14,26.05-20.76,55.76-20.76s47.22,12.62,55.77,20.76c15.06,14.65,22.79,35.01,22.79,56.58,0,12.21-2.85,26.05-9.77,37.04-4.88,7.33-12.62,15.47-24.01,20.35,12.62,5.29,22.38,13.44,28.49,21.98,10.18,13.44,12.21,28.5,12.21,40.71,0,27.68-10.58,46.4-21.57,57.8Z"/>
    </g>
  </g>
</svg>